<svg width="314" height="41" viewBox="0 0 314 41" fill="none" xmlns="http://www.w3.org/2000/svg">
<path d="M12.24 12.092C14.112 12.092 15.816 12.536 17.352 13.424C18.888 14.288 20.088 15.488 20.952 17.024C21.84 18.56 22.284 20.276 22.284 22.172V30.92C22.284 31.232 22.188 31.496 21.996 31.712C21.804 31.904 21.54 32 21.204 32C20.892 32 20.628 31.904 20.412 31.712C20.22 31.496 20.124 31.232 20.124 30.92V28.112C19.332 29.384 18.24 30.392 16.848 31.136C15.48 31.856 13.944 32.216 12.24 32.216C10.344 32.216 8.628 31.784 7.092 30.92C5.556 30.032 4.344 28.82 3.456 27.284C2.592 25.748 2.16 24.044 2.16 22.172C2.16 20.276 2.592 18.56 3.456 17.024C4.344 15.488 5.556 14.288 7.092 13.424C8.628 12.536 10.344 12.092 12.24 12.092ZM12.24 30.2C13.728 30.2 15.072 29.852 16.272 29.156C17.472 28.46 18.408 27.5 19.08 26.276C19.776 25.052 20.124 23.684 20.124 22.172C20.124 20.66 19.776 19.292 19.08 18.068C18.408 16.844 17.472 15.884 16.272 15.188C15.072 14.468 13.728 14.108 12.24 14.108C10.752 14.108 9.408 14.468 8.208 15.188C7.008 15.884 6.06 16.844 5.364 18.068C4.668 19.292 4.32 20.66 4.32 22.172C4.32 23.684 4.668 25.052 5.364 26.276C6.06 27.5 7.008 28.46 8.208 29.156C9.408 29.852 10.752 30.2 12.24 30.2ZM44.3416 12.308C44.6776 12.308 44.9416 12.404 45.1336 12.596C45.3256 12.788 45.4216 13.052 45.4216 13.388V30.92C45.4216 31.232 45.3256 31.496 45.1336 31.712C44.9416 31.904 44.6776 32 44.3416 32C44.0296 32 43.7656 31.904 43.5496 31.712C43.3576 31.496 43.2616 31.232 43.2616 30.92V29.048C42.4456 30.056 41.4496 30.848 40.2736 31.424C39.0976 31.976 37.8136 32.252 36.4216 32.252C34.6696 32.252 33.0976 31.892 31.7056 31.172C30.3376 30.452 29.2576 29.408 28.4656 28.04C27.6976 26.648 27.3136 24.992 27.3136 23.072V13.388C27.3136 13.076 27.4096 12.824 27.6016 12.632C27.8176 12.416 28.0816 12.308 28.3936 12.308C28.7056 12.308 28.9576 12.416 29.1496 12.632C29.3656 12.824 29.4736 13.076 29.4736 13.388V23.072C29.4736 25.352 30.1096 27.092 31.3816 28.292C32.6776 29.492 34.3576 30.092 36.4216 30.092C37.6936 30.092 38.8456 29.852 39.8776 29.372C40.9336 28.868 41.7616 28.184 42.3616 27.32C42.9616 26.432 43.2616 25.46 43.2616 24.404V13.388C43.2616 13.052 43.3576 12.788 43.5496 12.596C43.7656 12.404 44.0296 12.308 44.3416 12.308ZM69.8603 3.884C70.1963 3.884 70.4603 3.98 70.6523 4.172C70.8443 4.364 70.9403 4.628 70.9403 4.964V22.28V22.352C70.9163 24.2 70.4603 25.88 69.5723 27.392C68.6843 28.904 67.4723 30.092 65.9363 30.956C64.4243 31.796 62.7443 32.216 60.8963 32.216C59.0003 32.216 57.2843 31.784 55.7483 30.92C54.2123 30.032 53.0003 28.82 52.1123 27.284C51.2483 25.748 50.8163 24.032 50.8163 22.136C50.8163 20.264 51.2483 18.56 52.1123 17.024C53.0003 15.488 54.2123 14.288 55.7483 13.424C57.2843 12.536 59.0003 12.092 60.8963 12.092C62.6003 12.092 64.1363 12.464 65.5043 13.208C66.8963 13.928 67.9883 14.924 68.7803 16.196V4.964C68.7803 4.628 68.8763 4.364 69.0683 4.172C69.2843 3.98 69.5483 3.884 69.8603 3.884ZM60.8963 30.2C62.3843 30.2 63.7283 29.852 64.9283 29.156C66.1283 28.436 67.0643 27.464 67.7363 26.24C68.4323 25.016 68.7803 23.648 68.7803 22.136C68.7803 20.624 68.4323 19.256 67.7363 18.032C67.0643 16.808 66.1283 15.848 64.9283 15.152C63.7283 14.456 62.3843 14.108 60.8963 14.108C59.4083 14.108 58.0643 14.456 56.8643 15.152C55.6643 15.848 54.7163 16.808 54.0203 18.032C53.3243 19.256 52.9763 20.624 52.9763 22.136C52.9763 23.648 53.3243 25.016 54.0203 26.24C54.7163 27.464 55.6643 28.436 56.8643 29.156C58.0643 29.852 59.4083 30.2 60.8963 30.2ZM85.7717 12.092C87.5957 12.092 88.5077 12.488 88.5077 13.28C88.5077 13.4 88.4957 13.496 88.4717 13.568C88.3997 13.832 88.2797 14.024 88.1117 14.144C87.9677 14.24 87.7637 14.288 87.4997 14.288C87.2837 14.288 86.9957 14.264 86.6357 14.216C86.2997 14.168 86.0117 14.144 85.7717 14.144C84.5717 14.144 83.5037 14.396 82.5677 14.9C81.6317 15.404 80.8997 16.1 80.3717 16.988C79.8437 17.876 79.5797 18.872 79.5797 19.976V30.92C79.5797 31.232 79.4837 31.496 79.2917 31.712C79.0997 31.904 78.8357 32 78.4997 32C78.1877 32 77.9237 31.904 77.7077 31.712C77.5157 31.496 77.4197 31.232 77.4197 30.92V13.388C77.4197 13.052 77.5157 12.788 77.7077 12.596C77.9237 12.404 78.1877 12.308 78.4997 12.308C78.8357 12.308 79.0997 12.404 79.2917 12.596C79.4837 12.788 79.5797 13.052 79.5797 13.388V15.62C80.2757 14.516 81.1637 13.652 82.2437 13.028C83.3237 12.404 84.4997 12.092 85.7717 12.092ZM99.9354 12.128C101.687 12.128 103.247 12.548 104.615 13.388C106.007 14.204 107.087 15.344 107.855 16.808C108.623 18.272 109.007 19.94 109.007 21.812C109.007 22.124 108.911 22.376 108.719 22.568C108.527 22.736 108.275 22.82 107.963 22.82H92.8794C92.9514 24.236 93.3234 25.508 93.9954 26.636C94.6674 27.74 95.5674 28.604 96.6954 29.228C97.8234 29.852 99.0834 30.164 100.475 30.164C101.411 30.164 102.347 30.008 103.283 29.696C104.243 29.36 104.999 28.928 105.551 28.4C105.791 28.208 106.043 28.112 106.307 28.112C106.571 28.112 106.787 28.184 106.955 28.328C107.219 28.544 107.351 28.796 107.351 29.084C107.351 29.324 107.243 29.552 107.027 29.768C106.259 30.464 105.251 31.04 104.003 31.496C102.779 31.952 101.603 32.18 100.475 32.18C98.5794 32.18 96.8874 31.76 95.3994 30.92C93.9354 30.056 92.7834 28.868 91.9434 27.356C91.1034 25.82 90.6834 24.092 90.6834 22.172C90.6834 20.228 91.0674 18.5 91.8354 16.988C92.6274 15.452 93.7194 14.264 95.1114 13.424C96.5274 12.56 98.1354 12.128 99.9354 12.128ZM99.9354 14.144C98.0634 14.144 96.4794 14.768 95.1834 16.016C93.9114 17.264 93.1554 18.908 92.9154 20.948H106.919C106.751 18.908 106.031 17.264 104.759 16.016C103.487 14.768 101.879 14.144 99.9354 14.144ZM129.361 12.344C129.817 12.536 130.045 12.812 130.045 13.172C130.045 13.268 129.997 13.436 129.901 13.676L117.805 39.884C117.589 40.316 117.313 40.532 116.977 40.532C116.833 40.532 116.665 40.496 116.473 40.424C116.017 40.232 115.789 39.956 115.789 39.596C115.789 39.5 115.837 39.332 115.933 39.092L119.533 31.316C119.509 31.292 119.461 31.208 119.389 31.064L111.505 13.784C111.409 13.592 111.361 13.4 111.361 13.208C111.361 12.848 111.565 12.572 111.973 12.38C112.165 12.284 112.357 12.236 112.549 12.236C112.909 12.236 113.185 12.44 113.377 12.848L120.685 28.832L128.029 12.884C128.245 12.452 128.521 12.236 128.857 12.236C129.025 12.236 129.193 12.272 129.361 12.344ZM154.443 5.756C154.443 5.204 154.623 4.76 154.983 4.424C155.343 4.064 155.787 3.884 156.315 3.884C156.843 3.884 157.275 4.064 157.611 4.424C157.971 4.76 158.151 5.204 158.151 5.756V30.128C158.151 30.68 157.971 31.136 157.611 31.496C157.275 31.832 156.843 32 156.315 32C155.787 32 155.343 31.82 154.983 31.46C154.623 31.1 154.443 30.656 154.443 30.128V19.4H137.739V30.128C137.739 30.656 137.559 31.1 137.199 31.46C136.863 31.82 136.419 32 135.867 32C135.339 32 134.895 31.82 134.535 31.46C134.175 31.1 133.995 30.656 133.995 30.128V5.756C133.995 5.204 134.175 4.76 134.535 4.424C134.895 4.064 135.339 3.884 135.867 3.884C136.419 3.884 136.863 4.064 137.199 4.424C137.559 4.76 137.739 5.204 137.739 5.756V16.088H154.443V5.756ZM182.67 21.848C182.67 22.304 182.514 22.688 182.202 23C181.89 23.288 181.494 23.432 181.014 23.432H167.334C167.598 25.112 168.354 26.468 169.602 27.5C170.874 28.532 172.422 29.048 174.246 29.048C174.966 29.048 175.71 28.916 176.478 28.652C177.27 28.388 177.918 28.064 178.422 27.68C178.758 27.416 179.154 27.284 179.61 27.284C180.066 27.284 180.426 27.404 180.69 27.644C181.122 28.004 181.338 28.412 181.338 28.868C181.338 29.3 181.146 29.66 180.762 29.948C179.946 30.596 178.926 31.124 177.702 31.532C176.502 31.94 175.35 32.144 174.246 32.144C172.278 32.144 170.514 31.724 168.954 30.884C167.394 30.02 166.17 28.832 165.282 27.32C164.418 25.808 163.986 24.092 163.986 22.172C163.986 20.252 164.394 18.536 165.21 17.024C166.05 15.488 167.202 14.3 168.666 13.46C170.154 12.596 171.834 12.164 173.706 12.164C175.554 12.164 177.15 12.572 178.494 13.388C179.838 14.204 180.87 15.344 181.59 16.808C182.31 18.272 182.67 19.952 182.67 21.848ZM173.706 15.26C171.954 15.26 170.526 15.74 169.422 16.7C168.342 17.66 167.658 18.944 167.37 20.552H179.358C179.142 18.944 178.542 17.66 177.558 16.7C176.574 15.74 175.29 15.26 173.706 15.26ZM197.253 12.164C199.101 12.164 200.781 12.608 202.293 13.496C203.829 14.36 205.029 15.56 205.893 17.096C206.757 18.608 207.189 20.3 207.189 22.172C207.189 24.044 206.781 25.748 205.965 27.284C205.173 28.796 204.069 29.984 202.653 30.848C201.261 31.712 199.701 32.144 197.973 32.144C196.581 32.144 195.285 31.856 194.085 31.28C192.885 30.704 191.865 29.9 191.025 28.868V38.588C191.025 39.14 190.857 39.584 190.521 39.92C190.185 40.256 189.741 40.424 189.189 40.424C188.661 40.424 188.217 40.256 187.857 39.92C187.521 39.584 187.353 39.14 187.353 38.588V22.172C187.353 20.3 187.785 18.608 188.649 17.096C189.537 15.56 190.725 14.36 192.213 13.496C193.725 12.608 195.405 12.164 197.253 12.164ZM197.253 28.904C198.453 28.904 199.533 28.616 200.493 28.04C201.477 27.44 202.245 26.636 202.797 25.628C203.373 24.596 203.661 23.444 203.661 22.172C203.661 20.9 203.373 19.748 202.797 18.716C202.245 17.684 201.477 16.88 200.493 16.304C199.533 15.704 198.453 15.404 197.253 15.404C196.053 15.404 194.961 15.704 193.977 16.304C193.017 16.88 192.261 17.684 191.709 18.716C191.157 19.748 190.881 20.9 190.881 22.172C190.881 23.444 191.157 24.596 191.709 25.628C192.261 26.636 193.017 27.44 193.977 28.04C194.961 28.616 196.053 28.904 197.253 28.904ZM214.502 3.884C213.95 3.884 213.506 4.052 213.17 4.388C212.834 4.724 212.666 5.168 212.666 5.72V22.136C212.666 24.008 213.098 25.712 213.962 27.248C214.85 28.76 216.038 29.96 217.526 30.848C219.038 31.712 220.718 32.144 222.566 32.144C224.414 32.144 226.094 31.712 227.606 30.848C229.142 29.96 230.342 28.76 231.206 27.248C232.07 25.712 232.502 24.008 232.502 22.136C232.502 20.264 232.094 18.572 231.278 17.06C230.486 15.524 229.382 14.324 227.966 13.46C226.574 12.596 225.014 12.164 223.286 12.164C221.894 12.164 220.598 12.452 219.398 13.028C218.198 13.604 217.178 14.408 216.338 15.44V5.72C216.338 5.168 216.158 4.724 215.798 4.388C215.462 4.052 215.03 3.884 214.502 3.884ZM222.566 28.904C221.366 28.904 220.274 28.616 219.29 28.04C218.33 27.44 217.574 26.624 217.022 25.592C216.47 24.56 216.194 23.408 216.194 22.136C216.194 20.864 216.47 19.724 217.022 18.716C217.574 17.684 218.33 16.88 219.29 16.304C220.274 15.704 221.366 15.404 222.566 15.404C223.766 15.404 224.846 15.704 225.806 16.304C226.79 16.88 227.558 17.684 228.11 18.716C228.686 19.724 228.974 20.864 228.974 22.136C228.974 23.408 228.686 24.56 228.11 25.592C227.558 26.624 226.79 27.44 225.806 28.04C224.846 28.616 223.766 28.904 222.566 28.904ZM254.214 12.272C254.766 12.272 255.21 12.44 255.546 12.776C255.882 13.112 256.05 13.556 256.05 14.108V30.164C256.05 30.692 255.882 31.136 255.546 31.496C255.21 31.832 254.766 32 254.214 32C253.686 32 253.242 31.832 252.882 31.496C252.546 31.136 252.378 30.692 252.378 30.164V29.768C251.61 30.536 250.698 31.136 249.642 31.568C248.586 31.976 247.458 32.18 246.258 32.18C244.602 32.18 243.114 31.82 241.794 31.1C240.474 30.38 239.442 29.336 238.698 27.968C237.954 26.576 237.582 24.908 237.582 22.964V14.108C237.582 13.58 237.75 13.148 238.086 12.812C238.446 12.452 238.89 12.272 239.418 12.272C239.946 12.272 240.378 12.452 240.714 12.812C241.074 13.148 241.254 13.58 241.254 14.108V22.964C241.254 24.908 241.77 26.384 242.802 27.392C243.858 28.376 245.25 28.868 246.978 28.868C247.986 28.868 248.898 28.664 249.714 28.256C250.554 27.848 251.202 27.296 251.658 26.6C252.138 25.904 252.378 25.124 252.378 24.26V14.108C252.378 13.556 252.546 13.112 252.882 12.776C253.242 12.44 253.686 12.272 254.214 12.272ZM272.165 12.092C273.437 12.092 274.433 12.284 275.153 12.668C275.873 13.052 276.233 13.532 276.233 14.108C276.233 14.276 276.221 14.396 276.197 14.468C275.981 15.236 275.501 15.62 274.757 15.62C274.637 15.62 274.457 15.596 274.217 15.548C273.257 15.38 272.477 15.296 271.877 15.296C270.149 15.296 268.757 15.692 267.701 16.484C266.645 17.276 266.117 18.344 266.117 19.688V30.2C266.117 30.776 265.961 31.22 265.649 31.532C265.361 31.844 264.917 32 264.317 32C263.741 32 263.297 31.856 262.985 31.568C262.673 31.256 262.517 30.8 262.517 30.2V14.108C262.517 13.532 262.673 13.088 262.985 12.776C263.297 12.464 263.741 12.308 264.317 12.308C265.517 12.308 266.117 12.908 266.117 14.108V14.792C266.837 13.952 267.725 13.292 268.781 12.812C269.837 12.332 270.965 12.092 272.165 12.092ZM289.817 12.128C291.473 12.128 292.961 12.488 294.281 13.208C295.601 13.928 296.633 14.984 297.377 16.376C298.121 17.744 298.493 19.4 298.493 21.344V30.2C298.493 30.728 298.313 31.172 297.953 31.532C297.617 31.868 297.185 32.036 296.657 32.036C296.129 32.036 295.685 31.868 295.325 31.532C294.989 31.172 294.821 30.728 294.821 30.2V21.344C294.821 19.4 294.293 17.936 293.237 16.952C292.205 15.944 290.825 15.44 289.097 15.44C288.089 15.44 287.165 15.644 286.325 16.052C285.509 16.46 284.861 17.012 284.381 17.708C283.925 18.404 283.697 19.184 283.697 20.048V30.2C283.697 30.728 283.529 31.172 283.193 31.532C282.857 31.868 282.413 32.036 281.861 32.036C281.333 32.036 280.889 31.868 280.529 31.532C280.193 31.172 280.025 30.728 280.025 30.2V14.144C280.025 13.592 280.193 13.148 280.529 12.812C280.889 12.476 281.333 12.308 281.861 12.308C282.413 12.308 282.857 12.476 283.193 12.812C283.529 13.148 283.697 13.592 283.697 14.144V14.54C284.465 13.772 285.377 13.184 286.433 12.776C287.489 12.344 288.617 12.128 289.817 12.128ZM305.608 27.572C306.28 27.572 306.856 27.824 307.336 28.328C307.84 28.808 308.092 29.396 308.092 30.092C308.092 30.764 307.852 31.352 307.372 31.856C306.892 32.336 306.304 32.576 305.608 32.576C304.936 32.576 304.348 32.336 303.844 31.856C303.364 31.352 303.124 30.764 303.124 30.092C303.124 29.396 303.364 28.808 303.844 28.328C304.348 27.824 304.936 27.572 305.608 27.572Z" fill="black"/>
</svg>
