<svg width="22" height="18" viewBox="0 0 22 18" fill="none" xmlns="http://www.w3.org/2000/svg">
<path d="M9.59375 2.1875C8.61458 2.75 7.82292 3.23958 7.21875 3.65625C6.61458 4.05208 6 4.58333 5.375 5.25C4.79167 5.875 4.34375 6.53125 4.03125 7.21875C3.71875 7.90625 3.5 8.79167 3.375 9.875H4.875C6.16667 9.875 7.17708 10.1979 7.90625 10.8438C8.65625 11.4688 9.03125 12.3958 9.03125 13.625C9.03125 14.5 8.69792 15.3229 8.03125 16.0938C7.38542 16.8438 6.48958 17.2188 5.34375 17.2188C3.55208 17.2188 2.27083 16.6354 1.5 15.4688C0.729167 14.2812 0.34375 12.7292 0.34375 10.8125C0.34375 9.45833 0.635417 8.22917 1.21875 7.125C1.80208 6 2.51042 5 3.34375 4.125C4.19792 3.22917 5.10417 2.46875 6.0625 1.84375C7.02083 1.21875 7.82292 0.708333 8.46875 0.3125L9.59375 2.1875ZM21.1562 2.1875C20.1771 2.75 19.3854 3.23958 18.7812 3.65625C18.1771 4.05208 17.5625 4.58333 16.9375 5.25C16.3333 5.89583 15.875 6.5625 15.5625 7.25C15.2708 7.91667 15.0625 8.79167 14.9375 9.875H16.4375C17.7292 9.875 18.7396 10.1979 19.4688 10.8438C20.2188 11.4688 20.5938 12.3958 20.5938 13.625C20.5938 14.5 20.2604 15.3229 19.5938 16.0938C18.9479 16.8438 18.0521 17.2188 16.9062 17.2188C15.1146 17.2188 13.8333 16.6354 13.0625 15.4688C12.2917 14.2812 11.9062 12.7292 11.9062 10.8125C11.9062 9.45833 12.1979 8.22917 12.7812 7.125C13.3646 6 14.0729 5 14.9062 4.125C15.7604 3.22917 16.6667 2.46875 17.625 1.84375C18.5833 1.21875 19.3854 0.708333 20.0312 0.3125L21.1562 2.1875Z" fill="black"/>
</svg>
